<?xml version="1.0" encoding="UTF-8" standalone="no"?>
<svg
   xmlns:dc="http://purl.org/dc/elements/1.1/"
   xmlns:cc="http://creativecommons.org/ns#"
   xmlns:rdf="http://www.w3.org/1999/02/22-rdf-syntax-ns#"
   xmlns:svg="http://www.w3.org/2000/svg"
   xmlns="http://www.w3.org/2000/svg"
   xmlns:sodipodi="http://sodipodi.sourceforge.net/DTD/sodipodi-0.dtd"
   xmlns:inkscape="http://www.inkscape.org/namespaces/inkscape"
   width="15046.444"
   height="4592.2568"
   viewBox="0 0 15046.445 4592.2568"
   version="1.1"
   id="svg2"
   inkscape:version="0.48.0 r9654"
   sodipodi:docname="first-canoe.svg">
  <metadata
     id="metadata154">
    <rdf:RDF>
      <cc:Work
         rdf:about="">
        <dc:format>image/svg+xml</dc:format>
        <dc:type
           rdf:resource="http://purl.org/dc/dcmitype/StillImage" />
      </cc:Work>
    </rdf:RDF>
  </metadata>
  <defs
     id="defs152">
    <marker
       inkscape:stockid="Arrow1Lend"
       orient="auto"
       refY="0"
       refX="0"
       id="Arrow1Lend"
       style="overflow:visible">
      <path
         id="path4402"
         d="M 0,0 5,-5 -12.5,0 5,5 0,0 z"
         style="fill-rule:evenodd;stroke:#000000;stroke-width:1pt;marker-start:none"
         transform="matrix(-0.8,0,0,-0.8,-10,0)"
         inkscape:connector-curvature="0" />
    </marker>
    <marker
       inkscape:stockid="Arrow1Lstart"
       orient="auto"
       refY="0"
       refX="0"
       id="Arrow1Lstart"
       style="overflow:visible">
      <path
         id="path4399"
         d="M 0,0 5,-5 -12.5,0 5,5 0,0 z"
         style="fill-rule:evenodd;stroke:#000000;stroke-width:1pt;marker-start:none"
         transform="matrix(0.8,0,0,0.8,10,0)"
         inkscape:connector-curvature="0" />
    </marker>
  </defs>
  <sodipodi:namedview
     pagecolor="#ffffff"
     bordercolor="#666666"
     borderopacity="1"
     objecttolerance="10"
     gridtolerance="10"
     guidetolerance="10"
     inkscape:pageopacity="0"
     inkscape:pageshadow="2"
     inkscape:window-width="1920"
     inkscape:window-height="1057"
     id="namedview150"
     showgrid="false"
     inkscape:document-units="cm"
     units="cm"
     fit-margin-top="10"
     fit-margin-bottom="10"
     fit-margin-left="10"
     fit-margin-right="10"
     inkscape:zoom="0.054034283"
     inkscape:cx="8427.1432"
     inkscape:cy="2589.9529"
     inkscape:window-x="-8"
     inkscape:window-y="-8"
     inkscape:window-maximized="1"
     inkscape:current-layer="layer2"
     showguides="true"
     inkscape:guide-bbox="true">
    <sodipodi:guide
       orientation="1,0"
       position="841.66351,5466.7813"
       id="guide3985" />
    <sodipodi:guide
       orientation="1,0"
       position="13951.9,3582.3596"
       id="guide3987" />
  </sodipodi:namedview>
  <desc
     id="desc4">'first-canoe.blend', Mesh, (Blender 2.68 (sub 0))</desc>
  <g
     inkscape:groupmode="layer"
     id="layer1"
     inkscape:label="plan"
     style="display:inline"
     transform="translate(310.16746,4525.2048)">
    <g
       id="g4135"
       transform="translate(-2.8538707e-6,40.905248)">
      <path
         style="fill:#cccccc;fill-opacity:0.25;stroke:#000000;stroke-width:10.62992096;stroke-miterlimit:4"
         d="m 6248.3399,-3449.1883 -451.125,0.125 -472.8438,0.4688 -496.4374,0.9375 -521.9376,1.5312 -549.2812,2.25 -578.5938,3.2188 -609.8124,4.3437 -643.0626,5.625 -678.2812,7.1563 -715.46881,8.875 860.71881,204.0937 805.2812,170.4375 749.4376,139.7813 693.125,112.125 636.3437,87.4687 579,65.8438 521.1563,47.3125 462.6562,31.7813 403.5625,19.3437 343.875,10 283.4687,3.7813 222.4376,0.5937 222.4687,-0.5 283.4687,-3.6563 343.875,-9.8437 403.5938,-19.1875 462.6875,-31.5938 521.1875,-47.0624 579.063,-65.625 636.4371,-87.2188 693.187,-111.8125 749.563,-139.5 805.437,-170.1563 860.876,-203.7812 -715.563,-9.1563 -678.313,-7.4062 -643.093,-5.9063 -609.875,-4.5625 -578.625,-3.4375 -549.3131,-2.5 -521.968,-1.7187 -496.438,-1.125 -472.875,-0.6563 -451.1562,-0.3437 -431.2188,-0.1563 -413.1875,-0.062 -413.1875,-0.094 -431.25,-0.031 z"
         id="polygon142"
         inkscape:connector-curvature="0" />
    </g>
    <g
       id="g4161"
       transform="translate(-269.53738,0)">
      <path
         style="fill:#cccccc;fill-opacity:0.25;stroke:#000000;stroke-width:10.62992096;stroke-miterlimit:4;stroke-dasharray:none"
         d="m 924.71875,2811.5 -359.59375,762.6875 465.1875,92.5313 506.125,87.9062 541.375,82.4688 570.8125,76.375 594.5938,69.6562 612.6874,62.3438 625.375,54.4374 632.75,46.0313 635.0938,37.0313 632.9062,27.3124 626.5313,16.8126 616.7187,5.5312 616.6876,-5.5 626.5624,-16.8125 L 9501.5,4183 l 635.188,-36.9688 632.843,-46 625.5,-54.4374 612.844,-62.3126 594.75,-69.625 571,-76.375 541.531,-82.4374 506.282,-87.875 465.374,-92.5313 -359.656,-762.9375 -605.125,186.8438 -592.531,151.875 -580.969,120.5 -570.437,92.625 -561.125,68.4374 -552.969,47.7813 -546.312,30.8125 -541.1568,17.375 -537.7812,7.5312 -536.3125,1.125 -537.0313,-1.8437 -540.125,-1.375 -540.125,1.4063 -537.0312,1.8124 -536.25,-1.125 -537.7188,-7.5 -541.0624,-17.375 -546.1876,-30.8124 -552.875,-47.8126 -560.9687,-68.4374 -570.3125,-92.625 -580.75,-120.5 -592.3438,-151.875 L 924.71875,2811.5 z"
         transform="translate(-310.16746,-4525.2049)"
         id="polygon6"
         inkscape:connector-curvature="0" />
    </g>
    <g
       id="g4187"
       transform="translate(13.279777,55.520359)">
      <path
         style="fill:#cccccc;fill-opacity:0.25;stroke:#000000;stroke-width:10.62992096;stroke-miterlimit:4;stroke-dasharray:none"
         d="m 740.59375,615.09375 -468.75,653.50005 474.3125,6.1562 513.28125,21.3438 546.4063,36.6562 573.6562,51.2812 595.3125,63.8126 611.625,72.4374 623.125,76.0626 630.125,74.125 632.75,66.5 631.25,53.5 625.7813,35.5312 616.5937,12.9688 616.5937,-12.9688 625.7813,-35.5312 631.2813,-53.5 632.7812,-66.4688 630.125,-74.125 623.187,-76.0312 611.719,-72.4688 595.313,-63.7812 573.718,-51.3126 546.438,-36.625 513.344,-21.3437 474.344,-6.1875 -468.782,-653.53125 -877.75,110.4375 -816.625,103.625 -756.593,94.09375 -697.407,81.9062 -638.75,67.875 -580.3748,53.3126 -521.8124,39.25 -463,26.8437 -403.7188,16.5937 -343.9062,8.875 -283.4688,3.625 -222.4375,0.75 -222.4687,-0.75 -283.4688,-3.625 -343.9062,-8.875 -403.6876,-16.5937 -462.9687,-26.8437 -521.8125,-39.25 -580.3125,-53.3126 -638.7187,-67.875 L 3191.375,923.25 2434.8125,829.15625 1618.25,725.53125 740.59375,615.09375 z"
         transform="translate(-222.37744,-3322.2649)"
         id="polygon32"
         inkscape:connector-curvature="0" />
    </g>
  </g>
  <g
     inkscape:groupmode="layer"
     id="layer2"
     inkscape:label="texts"
     transform="translate(310.16746,4525.2048)"
     style="display:inline">
    <text
       xml:space="preserve"
       style="font-size:414.93280029px;font-style:normal;font-variant:normal;font-weight:normal;font-stretch:normal;line-height:125%;letter-spacing:0px;word-spacing:0px;writing-mode:lr-tb;fill:#000000;fill-opacity:1;stroke:none;font-family:Open Sans;-inkscape-font-specification:Open Sans"
       x="6111.8369"
       y="-2755.7095"
       id="text3973"
       sodipodi:linespacing="125%"><tspan
         sodipodi:role="line"
         id="tspan3975"
         x="6111.8369"
         y="-2755.7095">bottom</tspan></text>
    <text
       xml:space="preserve"
       style="font-size:414.93280029px;font-style:normal;font-variant:normal;font-weight:normal;font-stretch:normal;line-height:125%;letter-spacing:0px;word-spacing:0px;writing-mode:lr-tb;fill:#000000;fill-opacity:1;stroke:none;font-family:Open Sans;-inkscape-font-specification:Open Sans"
       x="6125.4438"
       y="-1631.3716"
       id="text3977"
       sodipodi:linespacing="125%"><tspan
         sodipodi:role="line"
         id="tspan3979"
         x="6125.4438"
         y="-1631.3716">middle</tspan></text>
    <text
       xml:space="preserve"
       style="font-size:414.93280029px;font-style:normal;font-variant:normal;font-weight:normal;font-stretch:normal;line-height:125%;letter-spacing:0px;word-spacing:0px;writing-mode:lr-tb;fill:#000000;fill-opacity:1;stroke:none;font-family:Open Sans;-inkscape-font-specification:Open Sans"
       x="6151.4521"
       y="-551.44592"
       id="text3981"
       sodipodi:linespacing="125%"><tspan
         sodipodi:role="line"
         id="tspan3983"
         x="6151.4521"
         y="-551.44592">top</tspan></text>
  </g>
  <g
     inkscape:groupmode="layer"
     id="layer3"
     inkscape:label="measure"
     style="display:inline"
     transform="translate(-4.8987452,614.40256)"
     sodipodi:insensitive="true">
    <path
       style="fill:none;stroke:#000000;stroke-width:17.71653557;stroke-linecap:butt;stroke-linejoin:miter;stroke-miterlimit:4;stroke-opacity:1;stroke-dasharray:none;marker-start:url(#Arrow1Lstart);marker-mid:none;marker-end:url(#Arrow1Lend)"
       d="m 846.56226,91.432238 13110.23674,0"
       id="path4214"
       inkscape:connector-curvature="0"
       transform="translate(0,-1.0832972e-4)" />
    <text
       transform="translate(315.06621,3910.8022)"
       sodipodi:linespacing="125%"
       id="text5394"
       y="-3961.3115"
       x="6746.8462"
       style="font-size:289.01296997px;font-style:normal;font-variant:normal;font-weight:normal;font-stretch:normal;line-height:125%;letter-spacing:0px;word-spacing:0px;writing-mode:lr-tb;fill:#000000;fill-opacity:1;stroke:none;display:inline;font-family:Open Sans;-inkscape-font-specification:Open Sans"
       xml:space="preserve"><tspan
         y="-3961.3115"
         x="6746.8462"
         id="tspan5396"
         sodipodi:role="line">370 cm</tspan></text>
  </g>
</svg>
